<svg width="260" height="300" viewBox="0 0 260 300" fill="none" xmlns="http://www.w3.org/2000/svg">
  <defs>
    <linearGradient id="g3" x1="44" y1="28" x2="164" y2="160" gradientUnits="userSpaceOnUse">
      <stop stop-color="#C8A24D"/>
      <stop offset="1" stop-color="#05876C"/>
    </linearGradient>
  </defs>
  <path d="M64 60C74 34 150 34 160 60L138 78C130 60 94 60 86 78L126 120V150H108V132H98H80V150H62V120L102 78L80 60H64L56 68V60Z" stroke="url(#g3)" stroke-width="8" stroke-linecap="round" stroke-linejoin="round"/>
  <path d="M78 164H144" stroke="#C8A24D" stroke-width="8" stroke-linecap="round"/>
  <text x="40" y="224" fill="#111111" font-family="Montserrat, Arial, sans-serif" font-size="36" font-weight="800" letter-spacing="-1.2">Ubuntu Wear</text>
  <text x="100" y="258" fill="#05876C" font-family="Montserrat, Arial, sans-serif" font-size="22" font-weight="700" letter-spacing="8">KE</text>
  <path d="M172 48H206V82H172Z" stroke="#F26A4B" stroke-width="2" opacity="0.3"/>
  <path d="M178 54H200M178 60H200M178 66H200M178 72H200" stroke="#F26A4B" stroke-width="2" opacity="0.25"/>
</svg>
